<mxfile host="app.diagrams.net" modified="2023-09-30T08:36:08.436Z" agent="Mozilla/5.0 (Windows NT 10.0; Win64; x64) AppleWebKit/537.36 (KHTML, like Gecko) Chrome/117.0.0.0 Safari/537.36" version="21.8.0" etag="2CKk6SYCk97gIYYQLDLI" type="github">
  <diagram name="Seite-1" id="x0M9T7X5ocQjO400lpPh">
    <mxGraphModel>
      <root>
        <mxCell id="0" />
        <mxCell id="1" parent="0" />
      </root>
    </mxGraphModel>
  </diagram>
</mxfile>
